<svg width="38" height="46" viewBox="0 0 38 46" fill="none" xmlns="http://www.w3.org/2000/svg">
<path d="M11.2326 40.6128C7.65446 41.6441 4.7886 42.1472 2.85288 41.8873C1.16856 41.6358 0.330606 40.856 0.070835 40.5625C0.0289364 40.529 -0.0129766 40.487 0.00378288 40.4367C0.0121626 40.378 0.062444 40.3277 0.137861 40.3193L0.783091 40.269C2.21602 40.1684 4.78023 40.093 7.76341 39.6486C11.2159 39.1371 16.7632 38.1225 19.2939 37.1164C19.3526 37.1331 19.3861 37.1834 19.3442 37.2757C17.6599 38.2902 14.2242 39.766 11.2242 40.6296L11.2326 40.6128ZM19.6123 38.7598C18.0034 39.8582 15.8247 40.9147 13.2186 41.8202C10.5706 42.7425 7.72151 43.5223 4.62102 44.0338C4.56236 44.0506 4.51209 44.0925 4.49533 44.1512C4.49533 44.1931 4.51208 44.235 4.53721 44.2602C5.04838 44.6627 5.71039 44.9058 6.51484 44.9897C7.51203 45.0987 8.71871 44.9645 10.1014 44.604C11.3332 44.277 12.5063 43.732 13.8387 43.0947C15.104 42.4826 16.3107 41.7699 17.3414 41.032C18.3889 40.2858 19.185 39.548 19.6794 38.9023C19.6794 38.8101 19.6542 38.7765 19.6123 38.7598ZM6.59026 10.3605C7.23549 11.0481 8.06509 11.5428 9.07903 11.8614L9.15445 11.8866C9.43936 11.962 26.3329 16.4144 30.8076 17.6218C32.7685 18.15 34.3187 18.5692 35.0394 18.7789C35.1148 18.7789 35.1567 18.7537 35.1651 18.7034C35.1651 18.6699 35.14 18.6279 35.0981 18.6112C32.2741 17.4708 14.861 10.7882 8.2997 8.28112L5.5344 7.20787C5.44223 7.19949 5.39196 7.20787 5.35844 7.24141C5.3333 7.27495 5.32491 7.32526 5.32491 7.35041C5.35005 7.58519 5.4925 8.8429 6.05394 9.69815C6.21316 9.94969 6.38913 10.1593 6.58187 10.3522L6.59026 10.3605ZM7.31929 3.71142C7.65448 4.13066 7.98128 4.39897 8.593 4.7679C8.80249 4.89367 9.0036 5.02783 9.24661 5.13683L10.8053 5.925C11.6935 6.3694 24.7407 12.4567 26.6513 13.4042C28.9055 14.511 31.1596 15.5759 32.1484 16.0706C32.249 16.0873 32.2908 16.0622 32.2657 15.9448C29.8356 14.4272 20.5006 8.54944 13.8303 4.43251L9.04551 1.53976L8.17401 1.00314L6.54834 0.0221212C6.45617 -0.0114179 6.41428 -0.00303311 6.38076 0.0221212C6.33048 0.0388908 6.31371 0.0808151 6.31371 0.114354C6.29695 0.340743 6.2802 1.56492 6.65728 2.50401C6.83326 2.91487 7.05114 3.35088 7.31929 3.71142ZM19.076 41.6861C19.076 41.6861 19.0174 41.6861 19.0006 41.7028C16.8387 43.8326 13.646 45.0316 12.5901 45.3586C12.5315 45.3586 12.4896 45.4089 12.4812 45.4676C12.4812 45.5179 12.5231 45.5766 12.565 45.6018C12.7326 45.6856 14.0147 46.3731 16.4448 45.1406C17.8274 44.4447 18.5314 43.3127 19.1598 41.8118C19.185 41.7196 19.1263 41.6861 19.0844 41.6861H19.076ZM34.6204 23.7846C33.531 24.0948 29.3915 25.1597 25.7295 26.0904C22.562 26.9037 19.009 27.8763 19.009 27.8763C18.6319 27.9686 18.7744 28.1195 18.8163 28.1782C18.9084 28.3291 19.1179 28.6477 19.3526 29.0502C19.9224 30.0061 20.6933 29.8803 21.3805 29.6371C21.5062 29.5952 34.126 24.3296 34.6958 23.9439C34.7964 23.8936 34.7293 23.8433 34.7293 23.8097C34.721 23.7678 34.6539 23.7846 34.6204 23.7846ZM29.0814 32.5383L28.9976 32.5718C27.3301 33.9553 24.791 36.1773 22.1598 38.4244C21.9084 38.6256 21.8162 38.9945 21.7073 39.4473C21.5397 40.1936 21.1542 41.1746 21.1542 41.1746C21.0788 41.401 21.1877 41.4932 21.3972 41.2752C23.4251 39.0868 27.9166 34.1146 29.1401 32.6976C29.1652 32.6054 29.1317 32.555 29.0814 32.5467V32.5383ZM37.0757 20.4139C34.8299 20.003 7.56229 15.1566 7.54553 15.1566C7.49525 15.1566 7.4366 15.1818 7.3947 15.2153C7.37794 15.2656 7.3947 15.3243 7.3947 15.3746C7.83883 16.7833 8.90304 18.2003 10.7382 18.7705C10.9477 18.8376 11.1321 18.8543 11.3332 18.8795C11.3332 18.8795 34.4528 20.3971 37.0338 20.5732C37.1008 20.5732 37.1427 20.548 37.1427 20.4977C37.1427 20.4474 37.1092 20.4139 37.0673 20.4055L37.0757 20.4139ZM35.936 21.9735C35.1232 21.9986 33.4556 22.007 31.3691 22.0154C28.9641 22.0238 26.0061 22.0405 23.2324 22.0405C19.5202 22.0489 13.6124 22.0908 13.6124 22.0908C13.5705 22.0908 13.5287 22.116 13.4951 22.1579C13.47 22.1999 13.47 22.2418 13.4951 22.2753C13.5706 22.5269 13.9141 23.1557 14.2912 23.5498C15.037 24.3212 15.8414 24.7237 16.6794 24.8159C16.78 24.8243 16.8805 24.8243 16.9811 24.8243C17.0817 24.8243 17.1822 24.8075 17.2912 24.7907C17.4001 24.774 34.9807 22.3005 35.9276 22.1495C35.9695 22.1495 36.0031 22.1076 36.0114 22.0741C36.0114 22.0238 35.9696 21.9818 35.9193 21.9735H35.936ZM33.2126 26.2413C32.0059 26.9876 28.8468 28.9161 26.1569 30.5343C24.6485 31.4483 22.7463 32.5131 21.7575 33.1252C21.6402 33.2007 21.548 33.1923 21.6067 33.5025C21.6067 33.5025 21.6486 33.796 21.6821 34.1398C21.7911 35.5987 22.3776 35.4394 23.2659 34.7602L23.3664 34.6764C26.3999 32.1777 32.0395 27.4319 33.2713 26.3922C33.3048 26.2832 33.2713 26.2497 33.2126 26.2329V26.2413Z" fill="#2D6DF6"/>
</svg>
